# Blender 3.4.1
# www.blender.org
mtllib Poster.mtl
o Cube
v 1.456453 7.853527 0.120196
v 1.456453 2.283982 0.120196
v 1.456453 7.853527 -0.120196
v 1.456453 2.283982 -0.120196
v -1.455190 7.853527 0.120196
v -1.455190 2.283982 0.120196
v -1.455190 7.853527 -0.120196
v -1.455190 2.283982 -0.120196
v 1.268838 7.495068 0.120196
v 1.268838 2.642440 0.120196
v 1.456453 7.853527 -0.120196
v 1.456453 2.283982 -0.120196
v -1.268016 7.495068 0.120196
v -1.268016 2.642440 0.120196
v -1.455190 7.853527 -0.120196
v -1.455190 2.283982 -0.120196
v 1.456453 2.283982 0.120196
v -1.455190 2.283982 0.120196
v 1.456453 7.853527 0.120196
v -1.455190 7.853527 0.120196
v 1.456453 2.283982 0.188603
v -1.455190 2.283982 0.188603
v 1.456453 7.853527 0.188603
v -1.455190 7.853527 0.188603
v 1.269058 2.642440 0.188603
v -1.267795 2.642440 0.188603
v 1.269058 7.495068 0.188603
v -1.267795 7.495068 0.188603
vn -0.0000 -1.0000 -0.0000
vn -0.0000 -0.0000 1.0000
vn 1.0000 -0.0000 -0.0000
vn -0.0000 1.0000 -0.0000
vn -1.0000 -0.0000 -0.0000
vn -0.0000 -0.0000 -1.0000
vn 1.0000 -0.0000 -0.0032
vn -1.0000 -0.0000 0.0032
vt 0.879873 0.908710
vt 0.833851 0.900893
vt 0.853593 0.890303
vt 0.853688 0.882160
vt 0.879873 0.854466
vt 0.840731 0.858234
vt 0.867864 0.874062
vt 0.859063 0.876043
vt 0.656192 0.972888
vt 0.882761 0.860045
vt 0.656192 0.001703
vt 0.885116 0.860045
vt 0.882587 0.857168
vt 0.885290 0.857168
vt 0.014617 0.972888
vt 0.882761 0.862399
vt 0.014617 0.001703
vt 0.885116 0.862399
vt 0.879885 0.857168
vt 0.882587 0.854466
vt 0.882587 0.865276
vt 0.885290 0.854466
vt 0.885290 0.865276
vt 0.887993 0.857168
vt 0.885290 0.859871
vt 0.887993 0.859871
vt 0.885290 0.862573
vt 0.882587 0.859871
vt 0.879885 0.859871
vt 0.882587 0.862573
vt 0.885290 0.859871
vt 0.887993 0.859871
vt 0.885290 0.862573
vt 0.882587 0.859871
vt 0.879885 0.859871
vt 0.882587 0.862573
vt 0.885116 0.860045
vt 0.885116 0.862399
vt 0.882761 0.860045
vt 0.882761 0.862399
s 0
usemtl Ticked
f 1/1/1 5/5/1 7/7/1 3/3/1
f 4/4/2 3/3/2 7/7/2 8/8/2
f 8/8/3 7/7/3 5/5/3 6/6/3
f 6/6/4 2/2/4 4/4/4 8/8/4
f 2/2/5 1/1/5 3/3/5 4/4/5
f 20/29/4 24/35/4 23/34/4 19/28/4
f 19/28/4 11/13/4 15/19/4 20/29/4
f 12/14/6 16/22/6 15/20/6 11/13/6
f 16/23/5 18/27/5 20/30/5 15/21/5
f 18/26/1 16/24/1 12/14/1 17/25/1
f 17/25/3 12/14/3 11/13/3 19/28/3
f 14/17/2 10/11/2 9/9/2 13/15/2
f 22/33/2 21/31/2 25/37/2 26/38/2
f 17/25/1 21/31/1 22/32/1 18/26/1
f 14/18/4 26/38/4 25/37/4 10/12/4
f 13/16/7 28/40/7 26/38/7 14/18/7
f 25/37/2 21/31/2 23/34/2 27/39/2
f 28/40/2 24/36/2 22/33/2 26/38/2
f 27/39/2 23/34/2 24/36/2 28/40/2
f 9/10/1 27/39/1 28/40/1 13/16/1
f 10/12/8 25/37/8 27/39/8 9/10/8
f 19/28/3 23/34/3 21/31/3 17/25/3
f 18/27/5 22/33/5 24/36/5 20/30/5
